<?xml version="1.0" standalone="no"?>
<!DOCTYPE svg PUBLIC "-//W3C//DTD SVG 20010904//EN"
 "http://www.w3.org/TR/2001/REC-SVG-20010904/DTD/svg10.dtd">
<svg version="1.0" xmlns="http://www.w3.org/2000/svg"
 width="700.000000pt" height="700.000000pt" viewBox="0 0 700.000000 700.000000"
 preserveAspectRatio="xMidYMid meet">
<metadata>
Created by potrace 1.11, written by Peter Selinger 2001-2013
</metadata>
<g transform="translate(0.000000,700.000000) scale(0.100000,-0.100000)"
fill="#000000" stroke="none">
<path d="M3384 6777 c-27 -24 -42 -78 -43 -161 -1 -67 -36 -123 -97 -158 -30
-16 -64 -43 -77 -60 -44 -59 -66 -74 -153 -102 -118 -38 -158 -59 -189 -100
-30 -39 -67 -54 -212 -85 -104 -22 -155 -46 -197 -90 -38 -40 -62 -47 -246
-71 -168 -23 -271 -53 -334 -98 -44 -32 -122 -62 -160 -62 -14 0 -40 17 -67
46 -24 25 -63 57 -87 71 -41 24 -49 25 -130 20 -77 -6 -89 -9 -114 -34 -24
-24 -30 -42 -39 -116 -16 -121 -2 -156 105 -262 45 -45 99 -94 121 -110 22
-16 57 -45 79 -63 57 -50 110 -70 211 -78 90 -7 90 -7 133 -51 l42 -43 0 -349
c0 -462 -11 -527 -102 -602 -25 -21 -58 -64 -77 -98 -31 -59 -36 -64 -116
-102 -49 -23 -105 -60 -136 -88 -59 -55 -90 -65 -259 -80 -101 -10 -106 -9
-146 14 -22 13 -53 42 -69 65 -44 64 -58 70 -156 70 -87 0 -87 0 -117 -35 -27
-30 -32 -45 -38 -117 -9 -99 -9 -99 22 -165 33 -68 137 -166 307 -290 43 -32
108 -50 202 -58 75 -7 82 -9 118 -46 l38 -38 -4 -398 c-4 -474 -5 -480 -92
-558 -30 -28 -68 -75 -83 -105 -27 -52 -34 -58 -121 -101 -54 -27 -107 -62
-131 -87 -23 -23 -56 -46 -77 -52 -56 -15 -264 -35 -294 -27 -24 6 -49 29
-128 115 -29 32 -30 32 -123 32 -90 0 -96 -1 -121 -27 -21 -23 -28 -43 -38
-119 -11 -90 -11 -92 16 -153 22 -47 47 -80 108 -137 45 -42 92 -83 106 -92
14 -9 43 -31 63 -49 58 -51 116 -72 215 -79 71 -5 94 -11 121 -31 64 -48 62
-29 62 -609 l0 -526 34 -34 34 -34 2552 0 2552 0 34 34 34 34 0 536 0 536 43
43 42 44 93 6 c72 4 104 12 148 33 30 15 60 34 67 43 7 9 32 30 57 46 73 49
200 184 227 243 24 51 24 56 13 139 -18 140 -32 153 -166 153 l-92 0 -36 -42
c-20 -23 -36 -45 -36 -49 0 -5 -21 -20 -46 -35 l-47 -27 -123 11 c-143 14
-197 32 -239 79 -18 20 -69 53 -125 81 -86 43 -97 52 -121 96 -28 51 -56 85
-106 127 -62 51 -67 87 -71 535 l-3 401 26 32 c38 44 48 48 158 60 97 11 158
33 195 69 10 9 43 36 73 59 77 57 189 175 216 226 25 48 28 89 11 188 -9 58
-16 74 -41 95 -27 23 -36 25 -120 22 l-91 -3 -40 -51 c-66 -82 -97 -99 -175
-96 -100 4 -222 22 -250 37 -14 7 -47 33 -72 58 -27 25 -72 54 -105 67 -86 34
-102 48 -131 103 -14 28 -52 76 -86 108 -88 84 -89 94 -94 567 l-4 383 43 43
c43 43 44 43 133 50 101 8 155 28 211 78 22 19 49 41 62 50 12 8 65 56 117
106 126 120 141 151 125 270 -18 136 -30 148 -154 156 -106 6 -134 -5 -214
-87 -52 -54 -53 -54 -96 -46 -58 11 -127 39 -151 62 -48 46 -155 76 -365 102
-132 17 -182 34 -206 70 -21 33 -114 70 -238 96 -106 22 -110 23 -164 75 -47
44 -72 59 -147 85 -49 17 -103 36 -118 41 -15 6 -41 30 -58 54 -18 26 -53 57
-87 77 -76 44 -98 84 -107 196 -6 78 -10 89 -38 119 -30 31 -33 32 -118 32
-77 0 -91 -3 -115 -23z m240 -556 c10 -11 26 -34 35 -53 24 -45 122 -97 215
-112 64 -11 72 -15 85 -42 37 -78 90 -105 255 -127 76 -11 103 -18 110 -32 37
-61 55 -82 86 -97 32 -16 160 -35 360 -55 72 -8 75 -9 93 -43 22 -42 74 -80
125 -90 139 -29 179 -39 196 -46 18 -7 18 -8 -4 -16 -30 -11 -3347 -11 -3367
1 -20 11 -7 19 54 31 203 40 226 50 265 115 l26 43 84 7 c165 14 314 36 348
53 19 9 45 33 57 52 39 62 47 67 119 74 164 17 254 60 269 126 4 20 14 31 28
34 197 38 264 71 287 141 15 45 40 54 156 54 87 1 103 -2 118 -18z m1231
-1016 l35 -36 0 -355 0 -356 -34 -34 -34 -34 -1325 0 -1325 0 -31 35 -31 36 0
355 0 356 34 34 34 34 1321 0 1320 0 36 -35z m-6 -1081 c20 -4 38 -18 51 -39
11 -18 37 -44 57 -57 21 -14 49 -44 63 -67 62 -104 63 -105 159 -153 59 -29
114 -65 146 -97 63 -60 125 -83 270 -101 120 -14 140 -20 105 -30 -32 -10
-4365 -10 -4405 0 -41 10 -20 16 100 30 155 18 191 31 260 94 41 38 86 66 145
91 114 50 120 56 195 196 5 10 23 24 38 30 16 7 43 31 59 53 16 23 39 44 51
48 28 8 2664 10 2706 2z m532 -843 l29 -29 0 -365 0 -365 -35 -31 -36 -31
-1839 0 -1839 0 -36 31 -35 31 0 365 0 365 29 29 29 29 1852 0 1852 0 29 -29z
m6 -1087 c12 -3 31 -21 42 -40 11 -19 35 -41 53 -50 32 -15 52 -40 86 -109 8
-16 24 -41 36 -54 20 -23 149 -91 172 -91 6 0 36 -24 65 -53 78 -77 131 -97
284 -111 98 -9 129 -16 118 -27 -13 -13 -5474 -12 -5486 0 -11 11 11 15 153
31 116 13 162 33 231 99 30 28 70 56 89 62 97 32 200 104 200 140 0 21 54 89
91 113 21 14 45 39 54 55 8 16 23 32 32 34 27 7 3754 8 3780 1z m518 -839 l35
-36 0 -444 0 -444 -35 -36 -36 -35 -704 0 -704 0 -36 31 -35 31 0 274 0 274
-43 45 -44 45 -797 0 c-882 0 -827 4 -874 -64 -21 -31 -22 -40 -22 -300 l0
-268 -34 -34 -34 -34 -706 0 -705 0 -36 35 -35 36 0 444 0 444 35 36 36 35
2369 0 2369 0 36 -35z m-1780 -745 l0 -185 -625 0 -625 0 -3 175 c-1 96 0 180
2 187 4 11 126 13 628 11 l623 -3 0 -185z"/>
</g>
</svg>
